<svg width="41" height="40" viewBox="0 0 41 40" fill="none" xmlns="http://www.w3.org/2000/svg">
  <mask id="mask0_91_809" style="mask-type:alpha" maskUnits="userSpaceOnUse" x="0" y="0" width="41" height="40">
    <rect x="0.5" width="40" height="40" fill="#D9D9D9"/>
  </mask>
  <g mask="url(#mask0_91_809)">
    <path d="M12.3761 28.5256C11.9997 28.5256 11.657 28.3682 11.348 28.0536C11.0391 27.739 10.8846 27.3899 10.8846 27.0063V24.1453H31.1036L31.6325 24.6742V10H34.5384C34.9148 10 35.2546 10.1573 35.5579 10.472C35.8611 10.7866 36.0127 11.1414 36.0127 11.5363V31.267C36.0127 31.8519 35.7458 32.2544 35.212 32.4744C34.6782 32.6944 34.2061 32.5992 33.7959 32.189L30.1325 28.5256H12.3761ZM10.8846 21.2179L7.20412 24.8984C6.79387 25.3087 6.32183 25.4039 5.78799 25.1839C5.25416 24.9639 4.98724 24.5614 4.98724 23.9764V5.68597C4.98724 5.30241 5.13887 4.95332 5.44212 4.63868C5.74534 4.32404 6.08517 4.16672 6.46162 4.16672H27.2137C27.6015 4.16672 27.947 4.32119 28.2502 4.63013C28.5535 4.93908 28.7051 5.29102 28.7051 5.68597V19.6987C28.7051 20.0822 28.5535 20.4313 28.2502 20.746C27.947 21.0606 27.6015 21.2179 27.2137 21.2179H10.8846ZM26.6112 19.124V6.26068H7.0812V20.2779L8.23516 19.124H26.6112Z" fill="#424052"/>
  </g>
</svg>
